<svg width="34" height="16" viewBox="0 0 34 16" fill="none" xmlns="http://www.w3.org/2000/svg">
<path d="M33.3228 0.292969H11.3763C11.0022 0.292969 10.699 0.59618 10.699 0.970246V2.24757H4.24363C3.86957 2.24757 3.56636 2.55078 3.56636 2.92485C3.56636 3.29891 3.86957 3.60212 4.24363 3.60212H10.699V12.3978H6.84071C6.46665 12.3978 6.16344 12.701 6.16344 13.075C6.16344 13.4491 6.46665 13.7523 6.84071 13.7523H10.699V15.0296C10.699 15.4037 11.0022 15.7069 11.3763 15.7069H33.3228C33.6969 15.7069 34.0001 15.4037 34.0001 15.0296V0.970246C34.0001 0.59618 33.6969 0.292969 33.3228 0.292969ZM31.652 1.64752L22.3505 9.28324L13.0914 1.64752H31.652ZM32.6455 14.3524H12.0536V2.54739L21.9186 10.6828C22.0438 10.7859 22.1966 10.8376 22.3496 10.8376C22.502 10.8376 22.6544 10.7863 22.7793 10.6838L32.6455 2.58451V14.3524Z" fill="white"/>
<path d="M7.94703 7.25407H0.677277C0.303211 7.25407 0 7.55728 0 7.93135C0 8.30541 0.303211 8.60862 0.677277 8.60862H7.94703C8.3211 8.60862 8.62431 8.30541 8.62431 7.93135C8.62438 7.55728 8.3211 7.25407 7.94703 7.25407Z" fill="white"/>
<path d="M4.60562 12.3978H4.24364C3.86957 12.3978 3.56636 12.7011 3.56636 13.0751C3.56636 13.4492 3.86957 13.7524 4.24364 13.7524H4.60562C4.97969 13.7524 5.2829 13.4492 5.2829 13.0751C5.2829 12.7011 4.97969 12.3978 4.60562 12.3978Z" fill="white"/>
</svg>
